<svg xmlns="http://www.w3.org/2000/svg" width="132" height="127.533" viewBox="0 0 132 127.533">
  <g id="Group_82" data-name="Group 82" transform="translate(-447 -2055.898)">
    <text id="Photo_Editing" data-name="Photo Editing" transform="translate(447 2178.432)" fill="#212121" font-size="20" font-family="Rubik-Medium, Rubik" font-weight="500"><tspan x="0" y="0">Photo Editing</tspan></text>
    <g id="crop" transform="translate(470 2055.898)">
      <path id="Path_74" data-name="Path 74" d="M83.68,60.776H77.115V13.848A5.625,5.625,0,0,0,71.5,8.23H24.589V1.662A1.661,1.661,0,0,0,22.927,0H10.192A1.661,1.661,0,0,0,8.531,1.662V8.23H2.071A1.661,1.661,0,0,0,.409,9.891v12.74a1.661,1.661,0,0,0,1.661,1.661h6.46V71.22a5.625,5.625,0,0,0,5.618,5.618H61.057v6.568a1.661,1.661,0,0,0,1.661,1.661H75.454a1.661,1.661,0,0,0,1.661-1.661V76.839H83.68a1.661,1.661,0,0,0,1.661-1.661V62.438A1.662,1.662,0,0,0,83.68,60.776ZM11.854,3.323h9.412V8.23H11.854Zm-8.122,8.23H71.5a2.3,2.3,0,0,1,2.3,2.3V60.776H64.38V22.631a1.661,1.661,0,0,0-1.661-1.661H3.732ZM73.792,64.1v9.417H64.38V64.1Zm-49.2-39.807H61.057V60.776H24.589ZM14.149,73.516a2.3,2.3,0,0,1-2.3-2.3V24.292h9.412V62.437A1.661,1.661,0,0,0,22.927,64.1h38.13v9.417H14.149Zm59.643,8.229H64.38V76.839h9.412Zm8.226-8.229h-4.9V64.1h4.9v9.417Z" transform="translate(-0.341 0)" fill="#212121"/>
      <path id="Path_75" data-name="Path 75" d="M472.352,6.863a1.656,1.656,0,0,0,1.175-.487l3.541-3.541a1.662,1.662,0,0,0-2.35-2.35l-3.541,3.541a1.662,1.662,0,0,0,1.175,2.836Z" transform="translate(-392.485 0.001)" fill="#212121"/>
      <path id="Path_76" data-name="Path 76" d="M393.9,85.311a1.656,1.656,0,0,0,1.175-.487l3.541-3.541a1.662,1.662,0,0,0-2.35-2.35l-3.541,3.541a1.662,1.662,0,0,0,1.175,2.836Z" transform="translate(-327.071 -65.413)" fill="#212121"/>
      <path id="Path_77" data-name="Path 77" d="M320.169,157.384a1.662,1.662,0,0,0-2.35,0l-3.541,3.541a1.662,1.662,0,1,0,2.35,2.35l3.541-3.541A1.662,1.662,0,0,0,320.169,157.384Z" transform="translate(-261.656 -130.829)" fill="#212121"/>
      <path id="Path_78" data-name="Path 78" d="M239.372,235.832l-3.541,3.541a1.662,1.662,0,1,0,2.35,2.35l3.541-3.541a1.662,1.662,0,1,0-2.35-2.35Z" transform="translate(-196.243 -196.243)" fill="#212121"/>
      <path id="Path_79" data-name="Path 79" d="M160.923,314.28l-3.541,3.541a1.662,1.662,0,1,0,2.35,2.35l3.541-3.541a1.662,1.662,0,1,0-2.35-2.35Z" transform="translate(-130.828 -261.657)" fill="#212121"/>
      <path id="Path_80" data-name="Path 80" d="M82.475,392.729l-3.541,3.541a1.662,1.662,0,1,0,2.35,2.35l3.541-3.541a1.662,1.662,0,1,0-2.35-2.35Z" transform="translate(-65.414 -327.072)" fill="#212121"/>
      <path id="Path_81" data-name="Path 81" d="M4.026,471.177.486,474.717a1.662,1.662,0,0,0,2.35,2.35l3.541-3.541a1.662,1.662,0,1,0-2.35-2.35Z" transform="translate(0.001 -392.485)" fill="#212121"/>
    </g>
  </g>
</svg>
