<svg xmlns="http://www.w3.org/2000/svg" width="94.431" height="138.05" viewBox="0 0 94.431 138.05">
  <g id="Group_80" data-name="Group 80" transform="translate(-129.547 -2045.382)">
    <text id="UI_Design" data-name="UI Design" transform="translate(131.262 2178.432)" fill="#212121" font-size="20" font-family="Rubik-Medium, Rubik" font-weight="500"><tspan x="0" y="0">UI Design</tspan></text>
    <g id="web-design" transform="translate(129.547 2045.382)">
      <path id="Path_13" data-name="Path 13" d="M110.624,13.576h-1.239A8.924,8.924,0,0,0,94.351,3.964l-6.432,9.612H32.666a8.246,8.246,0,0,0-8.236,8.236V74.471a8.246,8.246,0,0,0,8.236,8.236H64.659L62.242,92.861H57.025a6.173,6.173,0,0,0-6.167,6.166v1.288H44.426a2.039,2.039,0,1,0,0,4.078H98.864a2.039,2.039,0,0,0,0-4.078H92.433V99.027a6.173,6.173,0,0,0-6.167-6.166H81.049L78.631,82.708h31.993a8.246,8.246,0,0,0,8.236-8.236V21.812a8.246,8.246,0,0,0-8.237-8.236ZM81.411,49.419c-3.188,2.232-9.16-.8-14.863,2.242-1.392-7.229-.514-14.027,6.729-15.528a12.978,12.978,0,0,1,2.8-.266l7.376,5.473c1.07,3.113.669,6.182-2.044,8.08Zm2.055-21.854,5.771,4.282L84.8,37.258l-5.225-3.877ZM97.74,6.232A4.846,4.846,0,1,1,105.515,12L91.826,28.69l-6.09-4.519Zm-9.386,92.8v1.288H54.936V99.027a2.091,2.091,0,0,1,2.089-2.089H86.266a2.091,2.091,0,0,1,2.089,2.089Zm-11.5-6.166H66.434l2.417-10.153H74.44Zm37.926-18.389a4.163,4.163,0,0,1-4.159,4.159H32.667a4.163,4.163,0,0,1-4.159-4.159V64.923h5.826a2.039,2.039,0,0,0,0-4.078H28.508V21.812a4.163,4.163,0,0,1,4.159-4.159H85.191L75.734,31.786a13.931,13.931,0,0,0-10.6,4.477c-3.554,4.148-4.178,10.666-1.856,19.372a2.041,2.041,0,0,0,3.379.948c5.272-5.037,11.838.457,17.718-4.3,3.589-2.905,4.439-7.524,3.085-11.843l18.688-22.784h4.472a4.163,4.163,0,0,1,4.159,4.159V60.845H50.645a2.039,2.039,0,0,0,0,4.078h64.138Z" transform="translate(-24.43 0)" fill="#212121"/>
      <path id="Path_14" data-name="Path 14" d="M104.674,298.463a2.039,2.039,0,1,0,2.4,1.6A2.037,2.037,0,0,0,104.674,298.463Z" transform="translate(-87.008 -237.579)" fill="#212121"/>
    </g>
  </g>
</svg>
