<svg xmlns="http://www.w3.org/2000/svg" width="128" height="123.608" viewBox="0 0 128 123.608">
  <g id="Group_83" data-name="Group 83" transform="translate(-630 -2059.824)">
    <text id="Video_Editing" data-name="Video Editing" transform="translate(630 2178.432)" fill="#212121" font-size="20" font-family="Rubik-Medium, Rubik" font-weight="500"><tspan x="0" y="0">Video Editing</tspan></text>
    <g id="video-editing" transform="translate(649 2059.824)">
      <path id="Path_224" data-name="Path 224" d="M262.967,35.891a1.313,1.313,0,0,0-1.313-1.313H254.56a1.313,1.313,0,0,0-1.313,1.313v6.025a1.313,1.313,0,0,0,1.313,1.313h7.095a1.313,1.313,0,0,0,1.313-1.313ZM260.342,40.6h-4.469V37.2h4.469Z" transform="translate(-209.009 -28.538)"/>
      <path id="Path_225" data-name="Path 225" d="M261.655,100.132H254.56a1.313,1.313,0,0,0-1.313,1.313v6.025a1.313,1.313,0,0,0,1.313,1.313h7.095a1.313,1.313,0,0,0,1.313-1.313v-6.025A1.313,1.313,0,0,0,261.655,100.132Zm-1.313,6.025h-4.469v-3.4h4.469Z" transform="translate(-209.009 -82.641)"/>
      <path id="Path_226" data-name="Path 226" d="M254.56,305.443h7.095a1.313,1.313,0,0,0,1.313-1.313V298.1a1.313,1.313,0,0,0-1.313-1.313H254.56a1.313,1.313,0,0,0-1.313,1.313v6.025A1.313,1.313,0,0,0,254.56,305.443Zm1.313-6.025h4.469v3.4h-4.469Z" transform="translate(-209.009 -244.948)"/>
      <path id="Path_227" data-name="Path 227" d="M253.246,369.684A1.313,1.313,0,0,0,254.559,371h7.095a1.313,1.313,0,0,0,1.313-1.313v-6.025a1.313,1.313,0,0,0-1.313-1.313h-7.095a1.313,1.313,0,0,0-1.313,1.313Zm2.626-4.713h4.469v3.4h-4.469Z" transform="translate(-209.008 -299.05)"/>
      <path id="Path_228" data-name="Path 228" d="M253.246,435.237a1.313,1.313,0,0,0,1.313,1.313h7.095a1.313,1.313,0,0,0,1.313-1.313v-6.025a1.313,1.313,0,0,0-1.313-1.313h-7.095a1.313,1.313,0,0,0-1.313,1.313Zm2.626-4.713h4.469v3.4h-4.469Z" transform="translate(-209.008 -353.152)"/>
      <path id="Path_229" data-name="Path 229" d="M427.733,43.229h7.095a1.313,1.313,0,0,0,1.313-1.313V35.891a1.313,1.313,0,0,0-1.313-1.313h-7.095a1.313,1.313,0,0,0-1.313,1.313v6.025A1.313,1.313,0,0,0,427.733,43.229Zm1.313-6.025h4.469v3.4h-4.469Z" transform="translate(-351.932 -28.538)"/>
      <path id="Path_230" data-name="Path 230" d="M426.42,107.469a1.313,1.313,0,0,0,1.313,1.313h7.095a1.313,1.313,0,0,0,1.313-1.313v-6.025a1.313,1.313,0,0,0-1.313-1.313h-7.095a1.313,1.313,0,0,0-1.313,1.313Zm2.625-4.713h4.469v3.4h-4.469Z" transform="translate(-351.932 -82.64)"/>
      <path id="Path_231" data-name="Path 231" d="M426.42,173.023a1.313,1.313,0,0,0,1.313,1.313h7.095a1.313,1.313,0,0,0,1.313-1.313V167a1.313,1.313,0,0,0-1.313-1.313h-7.095A1.313,1.313,0,0,0,426.42,167Zm2.625-4.713h4.469v3.4h-4.469Z" transform="translate(-351.932 -136.743)"/>
      <path id="Path_232" data-name="Path 232" d="M426.42,238.577a1.313,1.313,0,0,0,1.313,1.313h7.095a1.313,1.313,0,0,0,1.313-1.313v-6.025a1.313,1.313,0,0,0-1.313-1.313h-7.095a1.313,1.313,0,0,0-1.313,1.313Zm2.625-4.713h4.469v3.4h-4.469Z" transform="translate(-351.932 -190.846)"/>
      <path id="Path_233" data-name="Path 233" d="M426.42,304.13a1.313,1.313,0,0,0,1.313,1.313h7.095a1.313,1.313,0,0,0,1.313-1.313V298.1a1.313,1.313,0,0,0-1.313-1.313h-7.095a1.313,1.313,0,0,0-1.313,1.313Zm2.625-4.713h4.469v3.4h-4.469Z" transform="translate(-351.932 -244.948)"/>
      <path id="Path_234" data-name="Path 234" d="M426.42,369.684A1.313,1.313,0,0,0,427.733,371h7.095a1.313,1.313,0,0,0,1.313-1.313v-6.025a1.313,1.313,0,0,0-1.313-1.313h-7.095a1.313,1.313,0,0,0-1.313,1.313Zm2.625-4.713h4.469v3.4h-4.469Z" transform="translate(-351.932 -299.05)"/>
      <path id="Path_235" data-name="Path 235" d="M426.42,435.237a1.313,1.313,0,0,0,1.313,1.313h7.095a1.313,1.313,0,0,0,1.313-1.313v-6.025a1.313,1.313,0,0,0-1.313-1.313h-7.095a1.313,1.313,0,0,0-1.313,1.313Zm2.625-4.713h4.469v3.4h-4.469Z" transform="translate(-351.932 -353.152)"/>
      <path id="Path_236" data-name="Path 236" d="M272.428,122.929a1.313,1.313,0,0,0-1.313,1.313v64.026H225.937V171.7a1.313,1.313,0,0,0-2.625,0v17.879a1.313,1.313,0,0,0,1.313,1.313h47.8a1.313,1.313,0,0,0,1.313-1.313V124.242A1.313,1.313,0,0,0,272.428,122.929Z" transform="translate(-184.303 -101.456)"/>
      <path id="Path_237" data-name="Path 237" d="M184.1,224.141l-.6.331a1.313,1.313,0,0,0,.639,2.46,2.657,2.657,0,0,0,1.232-.5,1.313,1.313,0,1,0-1.275-2.295Z" transform="translate(-150.893 -184.851)"/>
      <path id="Path_238" data-name="Path 238" d="M40.865,113.306c1.3-3.206-.844-7.113-4.78-8.708a8.688,8.688,0,0,0-5.582-.4,5.734,5.734,0,0,0-3.912,3.318c-1.3,3.206.844,7.113,4.78,8.708a9.185,9.185,0,0,0,3.44.687,7.89,7.89,0,0,0,2.143-.29A5.735,5.735,0,0,0,40.865,113.306Zm-8.508.488c-2.55-1.034-4.076-3.456-3.333-5.289a3.247,3.247,0,0,1,2.254-1.8,6.083,6.083,0,0,1,3.82.321c2.55,1.034,4.076,3.456,3.333,5.289a3.276,3.276,0,0,1-2.333,1.815,6.111,6.111,0,0,1-3.742-.341Z" transform="translate(-21.633 -85.759)"/>
      <path id="Path_239" data-name="Path 239" d="M36.952,291.025a8.686,8.686,0,0,0-5.582.4c-3.935,1.6-6.079,5.5-4.78,8.708A5.735,5.735,0,0,0,30.5,303.45a7.882,7.882,0,0,0,2.143.29,9.186,9.186,0,0,0,3.44-.687c3.935-1.6,6.079-5.5,4.779-8.708A5.734,5.734,0,0,0,36.952,291.025ZM35.1,300.619a6.057,6.057,0,0,1-3.882.3,3.174,3.174,0,0,1-2.192-1.778c-.743-1.833.783-4.255,3.333-5.289a6.083,6.083,0,0,1,3.82-.321,3.247,3.247,0,0,1,2.254,1.8C39.174,297.163,37.648,299.585,35.1,300.619Z" transform="translate(-21.632 -239.949)"/>
      <path id="Path_240" data-name="Path 240" d="M88.125,0h-47.8a1.313,1.313,0,0,0-1.313,1.313V32.045l-3,1.163-.018.007a17.371,17.371,0,0,0-4.579,2.75l-9.6-3.951a8.2,8.2,0,0,0,1.786-2.7c2.058-5.076-1.428-11.3-7.771-13.871a14.124,14.124,0,0,0-9.073-.656,9.017,9.017,0,0,0-6.163,5.2c-2.058,5.076,1.428,11.3,7.765,13.868l1.593.656a1.313,1.313,0,0,0,1-2.428l-1.6-.659c-5-2.028-7.839-6.717-6.325-10.452a6.455,6.455,0,0,1,4.444-3.658,11.492,11.492,0,0,1,7.373.563c5,2.028,7.839,6.717,6.325,10.452a5.931,5.931,0,0,1-2.607,2.895,1.313,1.313,0,0,0,.154,2.352l2.369.975-1.139,1.234-4.132-1.7a1.313,1.313,0,0,0-1,2.428l11.105,4.571-17.555,7C2.02,50.654-1.466,56.877.592,61.953a9.017,9.017,0,0,0,6.163,5.2,12.74,12.74,0,0,0,3.461.467A14.993,14.993,0,0,0,15.828,66.5c6.343-2.572,9.829-8.795,7.771-13.871a8.194,8.194,0,0,0-1.767-2.677l9.448-3.765a17.658,17.658,0,0,0,4.634,2.769l.018.007,3.077,1.194V65a1.313,1.313,0,1,0,2.625,0V42.054l2.876-1.146a1.3,1.3,0,0,0-.272.8v6.025a1.313,1.313,0,0,0,1.313,1.313h7.095a1.313,1.313,0,0,0,1.313-1.313V41.706a1.313,1.313,0,0,0-1.313-1.313H45.8l22.937-9.142a1.323,1.323,0,0,0,.03-2.426,27.436,27.436,0,0,0-20.95-.2l-6.184,2.4V2.625H86.813v14.91a1.313,1.313,0,1,0,2.625,0V1.313A1.313,1.313,0,0,0,88.125,0ZM14.841,64.062a11.494,11.494,0,0,1-7.373.563,6.456,6.456,0,0,1-4.444-3.658c-1.514-3.735,1.323-8.424,6.318-10.449l10.679-4.256,1.088,1.146-2.384.95a1.324,1.324,0,0,0-.168,2.358,5.933,5.933,0,0,1,2.607,2.895C22.68,57.345,19.843,62.034,14.841,64.062ZM46.864,43.019h4.469v3.4H46.864ZM22.533,36.853l1.139-1.235,5.7,2.347c-.357.413-.7.841-1.015,1.287ZM39.009,47.335l-2.118-.822a14.988,14.988,0,0,1-2.754-1.471L39.009,43.1v4.235Zm9.769-16.267.018-.007a24.817,24.817,0,0,1,15.7-.944L23.737,46.361l-1.088-1.146L29,42.685a1.312,1.312,0,0,0,.659-.578,14.809,14.809,0,0,1,7.317-6.455Z" transform="translate(0 0)"/>
    </g>
  </g>
</svg>
