<svg xmlns="http://www.w3.org/2000/svg" width="786.575" height="138.05" viewBox="0 0 786.575 138.05">
  <g id="Group_67" data-name="Group 67" transform="translate(-129.547 -2045.382)">
    <text id="UI_Design" data-name="UI Design" transform="translate(131.262 2178.432)" fill="#212121" font-size="20" font-family="Rubik-Medium, Rubik" font-weight="500"><tspan x="0" y="0">UI Design</tspan></text>
    <text id="UX_Design" data-name="UX Design" transform="translate(288.174 2178.432)" fill="#212121" font-size="20" font-family="Rubik-Medium, Rubik" font-weight="500"><tspan x="0" y="0">UX Design</tspan></text>
    <text id="Photo_Editing" data-name="Photo Editing" transform="translate(446.747 2178.432)" fill="#212121" font-size="20" font-family="Rubik-Medium, Rubik" font-weight="500"><tspan x="0" y="0">Photo Editing</tspan></text>
    <text id="Video_Editing" data-name="Video Editing" transform="translate(630.085 2178.432)" fill="#212121" font-size="20" font-family="Rubik-Medium, Rubik" font-weight="500"><tspan x="0" y="0">Video Editing</tspan></text>
    <text id="Basic_Coding" data-name="Basic Coding" transform="translate(791.122 2178.432)" fill="#212121" font-size="20" font-family="Rubik-Medium, Rubik" font-weight="500"><tspan x="0" y="0">Basic Coding</tspan></text>
    <g id="user-experience" transform="translate(292.53 2055.898)">
      <path id="Path_6" data-name="Path 6" d="M35.173,83.5A4.738,4.738,0,1,0,39.9,88.238,4.74,4.74,0,0,0,35.173,83.5Zm0,6.317a1.579,1.579,0,1,1,1.573-1.579A1.578,1.578,0,0,1,35.173,89.817Z" transform="translate(-24.031 -77.288)" fill="#212121"/>
      <path id="Path_7" data-name="Path 7" d="M100.048,83.5a4.738,4.738,0,1,0,4.732,4.738A4.74,4.74,0,0,0,100.048,83.5Zm0,6.317a1.579,1.579,0,1,1,1.573-1.579A1.578,1.578,0,0,1,100.048,89.817Z" transform="translate(-75.246 -77.288)" fill="#212121"/>
      <path id="Path_8" data-name="Path 8" d="M163.052,83.5a4.738,4.738,0,1,0,4.732,4.738A4.74,4.74,0,0,0,163.052,83.5Zm0,6.317a1.579,1.579,0,1,1,1.573-1.579A1.578,1.578,0,0,1,163.052,89.817Z" transform="translate(-124.983 -77.288)" fill="#212121"/>
      <path id="Path_9" data-name="Path 9" d="M278.913,88.238a4.74,4.74,0,0,0-4.732-4.738H230.048a4.738,4.738,0,0,0,0,9.475h44.134A4.74,4.74,0,0,0,278.913,88.238Zm-4.732,1.579H230.048a1.579,1.579,0,0,1,0-3.158h44.134a1.579,1.579,0,0,1,0,3.158Z" transform="translate(-177.872 -77.288)" fill="#212121"/>
      <path id="Path_10" data-name="Path 10" d="M289.238,227.191a1.579,1.579,0,1,0-2.583,1.817l3.953,5.619a1.579,1.579,0,0,1-2.585,1.816l-9.5-13.5a2.635,2.635,0,0,0-2.152-1.117h0a2.636,2.636,0,0,0-2.152,1.116l-9.509,13.5a1.58,1.58,0,1,1-2.585-1.817l11.249-15.97a2.638,2.638,0,0,0,0-3.03L263.861,202.1a1.58,1.58,0,1,1,2.584-1.818l7.781,11.061a2.635,2.635,0,0,0,2.152,1.118h0a2.635,2.635,0,0,0,2.152-1.116l7.793-11.064a1.58,1.58,0,0,1,2.583,1.82l-9.531,13.532a2.638,2.638,0,0,0,0,3.03l3.039,4.32A1.579,1.579,0,1,0,285,221.161l-2.825-4.016,9.318-13.229a4.738,4.738,0,0,0-7.747-5.457l-7.362,10.452-7.351-10.45a4.738,4.738,0,0,0-7.751,5.452l9.3,13.226-11.036,15.667a4.738,4.738,0,0,0,7.747,5.458l9.08-12.891,9.067,12.888a4.738,4.738,0,0,0,7.751-5.452Z" transform="translate(-204.212 -166.457)" fill="#212121"/>
      <path id="Path_11" data-name="Path 11" d="M113.935,196.441a4.743,4.743,0,0,0-4.738,4.738v23.61c0,1.612-.459,3.492-3.866,5.207a7.774,7.774,0,0,1-3.537.792,6.838,6.838,0,0,1-3.787-1.065c-2.666-1.7-3.2-3.141-3.2-4.909V213.825a1.579,1.579,0,0,0-3.158,0v10.988c0,3.22,1.393,5.484,4.659,7.571a9.922,9.922,0,0,0,5.5,1.562,10.885,10.885,0,0,0,4.944-1.129c3.771-1.9,5.6-4.525,5.6-8.028v-23.61a1.579,1.579,0,0,1,3.158,0v23.61c0,4.746-2.47,8.4-7.342,10.849a14.014,14.014,0,0,1-6.365,1.467h-.022a13.147,13.147,0,0,1-7.179-2.059c-4.173-2.666-6.117-5.918-6.117-10.233V201.179a1.579,1.579,0,1,1,3.158,0v5.277a1.579,1.579,0,0,0,3.158,0v-5.277a4.738,4.738,0,0,0-9.475,0v23.634c0,5.345,2.549,9.683,7.575,12.894a16.258,16.258,0,0,0,8.877,2.556h.024a17.141,17.141,0,0,0,7.785-1.8c7.5-3.779,9.08-9.52,9.08-13.67v-23.61a4.743,4.743,0,0,0-4.738-4.738Z" transform="translate(-67.363 -166.448)" fill="#212121"/>
      <path id="Path_12" data-name="Path 12" d="M99.913,54H7.9A7.905,7.905,0,0,0,0,61.9v69.276a7.905,7.905,0,0,0,7.9,7.9H99.913a7.905,7.905,0,0,0,7.9-7.9V61.9A7.905,7.905,0,0,0,99.913,54Zm0,81.91H7.9a4.743,4.743,0,0,1-4.738-4.738V76H92.228a1.579,1.579,0,1,0,0-3.158H3.158V61.9A4.743,4.743,0,0,1,7.9,57.158H99.913a4.743,4.743,0,0,1,4.738,4.738V72.846H99.6A1.579,1.579,0,0,0,99.6,76h5.054v55.168A4.743,4.743,0,0,1,99.913,135.91Z" transform="translate(0 -54)" fill="#212121"/>
    </g>
    <g id="web-design" transform="translate(129.547 2045.382)">
      <path id="Path_13" data-name="Path 13" d="M110.624,13.576h-1.239A8.924,8.924,0,0,0,94.351,3.964l-6.432,9.612H32.666a8.246,8.246,0,0,0-8.236,8.236V74.471a8.246,8.246,0,0,0,8.236,8.236H64.659L62.242,92.861H57.025a6.173,6.173,0,0,0-6.167,6.166v1.288H44.426a2.039,2.039,0,1,0,0,4.078H98.864a2.039,2.039,0,0,0,0-4.078H92.433V99.027a6.173,6.173,0,0,0-6.167-6.166H81.049L78.631,82.708h31.993a8.246,8.246,0,0,0,8.236-8.236V21.812a8.246,8.246,0,0,0-8.237-8.236ZM81.411,49.419c-3.188,2.232-9.16-.8-14.863,2.242-1.392-7.229-.514-14.027,6.729-15.528a12.978,12.978,0,0,1,2.8-.266l7.376,5.473c1.07,3.113.669,6.182-2.044,8.08Zm2.055-21.854,5.771,4.282L84.8,37.258l-5.225-3.877ZM97.74,6.232A4.846,4.846,0,1,1,105.515,12L91.826,28.69l-6.09-4.519Zm-9.386,92.8v1.288H54.936V99.027a2.091,2.091,0,0,1,2.089-2.089H86.266a2.091,2.091,0,0,1,2.089,2.089Zm-11.5-6.166H66.434l2.417-10.153H74.44Zm37.926-18.389a4.163,4.163,0,0,1-4.159,4.159H32.667a4.163,4.163,0,0,1-4.159-4.159V64.923h5.826a2.039,2.039,0,0,0,0-4.078H28.508V21.812a4.163,4.163,0,0,1,4.159-4.159H85.191L75.734,31.786a13.931,13.931,0,0,0-10.6,4.477c-3.554,4.148-4.178,10.666-1.856,19.372a2.041,2.041,0,0,0,3.379.948c5.272-5.037,11.838.457,17.718-4.3,3.589-2.905,4.439-7.524,3.085-11.843l18.688-22.784h4.472a4.163,4.163,0,0,1,4.159,4.159V60.845H50.645a2.039,2.039,0,0,0,0,4.078h64.138Z" transform="translate(-24.43 0)" fill="#212121"/>
      <path id="Path_14" data-name="Path 14" d="M104.674,298.463a2.039,2.039,0,1,0,2.4,1.6A2.037,2.037,0,0,0,104.674,298.463Z" transform="translate(-87.008 -237.579)" fill="#212121"/>
    </g>
    <g id="crop" transform="translate(477.141 2055.898)">
      <path id="Path_74" data-name="Path 74" d="M83.68,60.776H77.115V13.848A5.625,5.625,0,0,0,71.5,8.23H24.589V1.662A1.661,1.661,0,0,0,22.927,0H10.192A1.661,1.661,0,0,0,8.531,1.662V8.23H2.071A1.661,1.661,0,0,0,.409,9.891v12.74a1.661,1.661,0,0,0,1.661,1.661h6.46V71.22a5.625,5.625,0,0,0,5.618,5.618H61.057v6.568a1.661,1.661,0,0,0,1.661,1.661H75.454a1.661,1.661,0,0,0,1.661-1.661V76.839H83.68a1.661,1.661,0,0,0,1.661-1.661V62.438A1.662,1.662,0,0,0,83.68,60.776ZM11.854,3.323h9.412V8.23H11.854Zm-8.122,8.23H71.5a2.3,2.3,0,0,1,2.3,2.3V60.776H64.38V22.631a1.661,1.661,0,0,0-1.661-1.661H3.732ZM73.792,64.1v9.417H64.38V64.1Zm-49.2-39.807H61.057V60.776H24.589ZM14.149,73.516a2.3,2.3,0,0,1-2.3-2.3V24.292h9.412V62.437A1.661,1.661,0,0,0,22.927,64.1h38.13v9.417H14.149Zm59.643,8.229H64.38V76.839h9.412Zm8.226-8.229h-4.9V64.1h4.9v9.417Z" transform="translate(-0.341 0)" fill="#212121"/>
      <path id="Path_75" data-name="Path 75" d="M472.352,6.863a1.656,1.656,0,0,0,1.175-.487l3.541-3.541a1.662,1.662,0,0,0-2.35-2.35l-3.541,3.541a1.662,1.662,0,0,0,1.175,2.836Z" transform="translate(-392.485 0.001)" fill="#212121"/>
      <path id="Path_76" data-name="Path 76" d="M393.9,85.311a1.656,1.656,0,0,0,1.175-.487l3.541-3.541a1.662,1.662,0,0,0-2.35-2.35l-3.541,3.541a1.662,1.662,0,0,0,1.175,2.836Z" transform="translate(-327.071 -65.413)" fill="#212121"/>
      <path id="Path_77" data-name="Path 77" d="M320.169,157.384a1.662,1.662,0,0,0-2.35,0l-3.541,3.541a1.662,1.662,0,1,0,2.35,2.35l3.541-3.541A1.662,1.662,0,0,0,320.169,157.384Z" transform="translate(-261.656 -130.829)" fill="#212121"/>
      <path id="Path_78" data-name="Path 78" d="M239.372,235.832l-3.541,3.541a1.662,1.662,0,1,0,2.35,2.35l3.541-3.541a1.662,1.662,0,1,0-2.35-2.35Z" transform="translate(-196.243 -196.243)" fill="#212121"/>
      <path id="Path_79" data-name="Path 79" d="M160.923,314.28l-3.541,3.541a1.662,1.662,0,1,0,2.35,2.35l3.541-3.541a1.662,1.662,0,1,0-2.35-2.35Z" transform="translate(-130.828 -261.657)" fill="#212121"/>
      <path id="Path_80" data-name="Path 80" d="M82.475,392.729l-3.541,3.541a1.662,1.662,0,1,0,2.35,2.35l3.541-3.541a1.662,1.662,0,1,0-2.35-2.35Z" transform="translate(-65.414 -327.072)" fill="#212121"/>
      <path id="Path_81" data-name="Path 81" d="M4.026,471.177.486,474.717a1.662,1.662,0,0,0,2.35,2.35l3.541-3.541a1.662,1.662,0,1,0-2.35-2.35Z" transform="translate(0.001 -392.485)" fill="#212121"/>
    </g>
    <g id="video-editing" transform="translate(633.809 2059.824)">
      <path id="Path_224" data-name="Path 224" d="M262.967,35.891a1.313,1.313,0,0,0-1.313-1.313H254.56a1.313,1.313,0,0,0-1.313,1.313v6.025a1.313,1.313,0,0,0,1.313,1.313h7.095a1.313,1.313,0,0,0,1.313-1.313ZM260.342,40.6h-4.469V37.2h4.469Z" transform="translate(-209.009 -28.538)"/>
      <path id="Path_225" data-name="Path 225" d="M261.655,100.132H254.56a1.313,1.313,0,0,0-1.313,1.313v6.025a1.313,1.313,0,0,0,1.313,1.313h7.095a1.313,1.313,0,0,0,1.313-1.313v-6.025A1.313,1.313,0,0,0,261.655,100.132Zm-1.313,6.025h-4.469v-3.4h4.469Z" transform="translate(-209.009 -82.641)"/>
      <path id="Path_226" data-name="Path 226" d="M254.56,305.443h7.095a1.313,1.313,0,0,0,1.313-1.313V298.1a1.313,1.313,0,0,0-1.313-1.313H254.56a1.313,1.313,0,0,0-1.313,1.313v6.025A1.313,1.313,0,0,0,254.56,305.443Zm1.313-6.025h4.469v3.4h-4.469Z" transform="translate(-209.009 -244.948)"/>
      <path id="Path_227" data-name="Path 227" d="M253.246,369.684A1.313,1.313,0,0,0,254.559,371h7.095a1.313,1.313,0,0,0,1.313-1.313v-6.025a1.313,1.313,0,0,0-1.313-1.313h-7.095a1.313,1.313,0,0,0-1.313,1.313Zm2.626-4.713h4.469v3.4h-4.469Z" transform="translate(-209.008 -299.05)"/>
      <path id="Path_228" data-name="Path 228" d="M253.246,435.237a1.313,1.313,0,0,0,1.313,1.313h7.095a1.313,1.313,0,0,0,1.313-1.313v-6.025a1.313,1.313,0,0,0-1.313-1.313h-7.095a1.313,1.313,0,0,0-1.313,1.313Zm2.626-4.713h4.469v3.4h-4.469Z" transform="translate(-209.008 -353.152)"/>
      <path id="Path_229" data-name="Path 229" d="M427.733,43.229h7.095a1.313,1.313,0,0,0,1.313-1.313V35.891a1.313,1.313,0,0,0-1.313-1.313h-7.095a1.313,1.313,0,0,0-1.313,1.313v6.025A1.313,1.313,0,0,0,427.733,43.229Zm1.313-6.025h4.469v3.4h-4.469Z" transform="translate(-351.932 -28.538)"/>
      <path id="Path_230" data-name="Path 230" d="M426.42,107.469a1.313,1.313,0,0,0,1.313,1.313h7.095a1.313,1.313,0,0,0,1.313-1.313v-6.025a1.313,1.313,0,0,0-1.313-1.313h-7.095a1.313,1.313,0,0,0-1.313,1.313Zm2.625-4.713h4.469v3.4h-4.469Z" transform="translate(-351.932 -82.64)"/>
      <path id="Path_231" data-name="Path 231" d="M426.42,173.023a1.313,1.313,0,0,0,1.313,1.313h7.095a1.313,1.313,0,0,0,1.313-1.313V167a1.313,1.313,0,0,0-1.313-1.313h-7.095A1.313,1.313,0,0,0,426.42,167Zm2.625-4.713h4.469v3.4h-4.469Z" transform="translate(-351.932 -136.743)"/>
      <path id="Path_232" data-name="Path 232" d="M426.42,238.577a1.313,1.313,0,0,0,1.313,1.313h7.095a1.313,1.313,0,0,0,1.313-1.313v-6.025a1.313,1.313,0,0,0-1.313-1.313h-7.095a1.313,1.313,0,0,0-1.313,1.313Zm2.625-4.713h4.469v3.4h-4.469Z" transform="translate(-351.932 -190.846)"/>
      <path id="Path_233" data-name="Path 233" d="M426.42,304.13a1.313,1.313,0,0,0,1.313,1.313h7.095a1.313,1.313,0,0,0,1.313-1.313V298.1a1.313,1.313,0,0,0-1.313-1.313h-7.095a1.313,1.313,0,0,0-1.313,1.313Zm2.625-4.713h4.469v3.4h-4.469Z" transform="translate(-351.932 -244.948)"/>
      <path id="Path_234" data-name="Path 234" d="M426.42,369.684A1.313,1.313,0,0,0,427.733,371h7.095a1.313,1.313,0,0,0,1.313-1.313v-6.025a1.313,1.313,0,0,0-1.313-1.313h-7.095a1.313,1.313,0,0,0-1.313,1.313Zm2.625-4.713h4.469v3.4h-4.469Z" transform="translate(-351.932 -299.05)"/>
      <path id="Path_235" data-name="Path 235" d="M426.42,435.237a1.313,1.313,0,0,0,1.313,1.313h7.095a1.313,1.313,0,0,0,1.313-1.313v-6.025a1.313,1.313,0,0,0-1.313-1.313h-7.095a1.313,1.313,0,0,0-1.313,1.313Zm2.625-4.713h4.469v3.4h-4.469Z" transform="translate(-351.932 -353.152)"/>
      <path id="Path_236" data-name="Path 236" d="M272.428,122.929a1.313,1.313,0,0,0-1.313,1.313v64.026H225.937V171.7a1.313,1.313,0,0,0-2.625,0v17.879a1.313,1.313,0,0,0,1.313,1.313h47.8a1.313,1.313,0,0,0,1.313-1.313V124.242A1.313,1.313,0,0,0,272.428,122.929Z" transform="translate(-184.303 -101.456)"/>
      <path id="Path_237" data-name="Path 237" d="M184.1,224.141l-.6.331a1.313,1.313,0,0,0,.639,2.46,2.657,2.657,0,0,0,1.232-.5,1.313,1.313,0,1,0-1.275-2.295Z" transform="translate(-150.893 -184.851)"/>
      <path id="Path_238" data-name="Path 238" d="M40.865,113.306c1.3-3.206-.844-7.113-4.78-8.708a8.688,8.688,0,0,0-5.582-.4,5.734,5.734,0,0,0-3.912,3.318c-1.3,3.206.844,7.113,4.78,8.708a9.185,9.185,0,0,0,3.44.687,7.89,7.89,0,0,0,2.143-.29A5.735,5.735,0,0,0,40.865,113.306Zm-8.508.488c-2.55-1.034-4.076-3.456-3.333-5.289a3.247,3.247,0,0,1,2.254-1.8,6.083,6.083,0,0,1,3.82.321c2.55,1.034,4.076,3.456,3.333,5.289a3.276,3.276,0,0,1-2.333,1.815,6.111,6.111,0,0,1-3.742-.341Z" transform="translate(-21.633 -85.759)"/>
      <path id="Path_239" data-name="Path 239" d="M36.952,291.025a8.686,8.686,0,0,0-5.582.4c-3.935,1.6-6.079,5.5-4.78,8.708A5.735,5.735,0,0,0,30.5,303.45a7.882,7.882,0,0,0,2.143.29,9.186,9.186,0,0,0,3.44-.687c3.935-1.6,6.079-5.5,4.779-8.708A5.734,5.734,0,0,0,36.952,291.025ZM35.1,300.619a6.057,6.057,0,0,1-3.882.3,3.174,3.174,0,0,1-2.192-1.778c-.743-1.833.783-4.255,3.333-5.289a6.083,6.083,0,0,1,3.82-.321,3.247,3.247,0,0,1,2.254,1.8C39.174,297.163,37.648,299.585,35.1,300.619Z" transform="translate(-21.632 -239.949)"/>
      <path id="Path_240" data-name="Path 240" d="M88.125,0h-47.8a1.313,1.313,0,0,0-1.313,1.313V32.045l-3,1.163-.018.007a17.371,17.371,0,0,0-4.579,2.75l-9.6-3.951a8.2,8.2,0,0,0,1.786-2.7c2.058-5.076-1.428-11.3-7.771-13.871a14.124,14.124,0,0,0-9.073-.656,9.017,9.017,0,0,0-6.163,5.2c-2.058,5.076,1.428,11.3,7.765,13.868l1.593.656a1.313,1.313,0,0,0,1-2.428l-1.6-.659c-5-2.028-7.839-6.717-6.325-10.452a6.455,6.455,0,0,1,4.444-3.658,11.492,11.492,0,0,1,7.373.563c5,2.028,7.839,6.717,6.325,10.452a5.931,5.931,0,0,1-2.607,2.895,1.313,1.313,0,0,0,.154,2.352l2.369.975-1.139,1.234-4.132-1.7a1.313,1.313,0,0,0-1,2.428l11.105,4.571-17.555,7C2.02,50.654-1.466,56.877.592,61.953a9.017,9.017,0,0,0,6.163,5.2,12.74,12.74,0,0,0,3.461.467A14.993,14.993,0,0,0,15.828,66.5c6.343-2.572,9.829-8.795,7.771-13.871a8.194,8.194,0,0,0-1.767-2.677l9.448-3.765a17.658,17.658,0,0,0,4.634,2.769l.018.007,3.077,1.194V65a1.313,1.313,0,1,0,2.625,0V42.054l2.876-1.146a1.3,1.3,0,0,0-.272.8v6.025a1.313,1.313,0,0,0,1.313,1.313h7.095a1.313,1.313,0,0,0,1.313-1.313V41.706a1.313,1.313,0,0,0-1.313-1.313H45.8l22.937-9.142a1.323,1.323,0,0,0,.03-2.426,27.436,27.436,0,0,0-20.95-.2l-6.184,2.4V2.625H86.813v14.91a1.313,1.313,0,1,0,2.625,0V1.313A1.313,1.313,0,0,0,88.125,0ZM14.841,64.062a11.494,11.494,0,0,1-7.373.563,6.456,6.456,0,0,1-4.444-3.658c-1.514-3.735,1.323-8.424,6.318-10.449l10.679-4.256,1.088,1.146-2.384.95a1.324,1.324,0,0,0-.168,2.358,5.933,5.933,0,0,1,2.607,2.895C22.68,57.345,19.843,62.034,14.841,64.062ZM46.864,43.019h4.469v3.4H46.864ZM22.533,36.853l1.139-1.235,5.7,2.347c-.357.413-.7.841-1.015,1.287ZM39.009,47.335l-2.118-.822a14.988,14.988,0,0,1-2.754-1.471L39.009,43.1v4.235Zm9.769-16.267.018-.007a24.817,24.817,0,0,1,15.7-.944L23.737,46.361l-1.088-1.146L29,42.685a1.312,1.312,0,0,0,.659-.578,14.809,14.809,0,0,1,7.317-6.455Z" transform="translate(0 0)"/>
    </g>
    <path id="Icon_awesome-html5" data-name="Icon awesome-html5" d="M0,2.25,6.864,80.092l30.8,10.266,31-10.266L75.521,2.25ZM60.614,27.4H24.466l.806,9.715H59.807L57.132,66.305l-19.254,5.31v.059h-.216L18.251,66.305,17.071,51.4h9.381l.688,7.493,10.522,2.852,10.561-2.852L49.4,46.658H16.579L14.062,18.023H61.479L60.614,27.4Z" transform="translate(812.361 2057.574)"/>
  </g>
</svg>
