<svg xmlns="http://www.w3.org/2000/svg" width="107.809" height="85.069" viewBox="0 0 107.809 85.069">
  <g id="user-experience" transform="translate(0)">
    <path id="Path_6" data-name="Path 6" d="M35.173,83.5A4.738,4.738,0,1,0,39.9,88.238,4.74,4.74,0,0,0,35.173,83.5Zm0,6.317a1.579,1.579,0,1,1,1.573-1.579A1.578,1.578,0,0,1,35.173,89.817Z" transform="translate(-24.031 -77.288)" fill="#212121"/>
    <path id="Path_7" data-name="Path 7" d="M100.048,83.5a4.738,4.738,0,1,0,4.732,4.738A4.74,4.74,0,0,0,100.048,83.5Zm0,6.317a1.579,1.579,0,1,1,1.573-1.579A1.578,1.578,0,0,1,100.048,89.817Z" transform="translate(-75.246 -77.288)" fill="#212121"/>
    <path id="Path_8" data-name="Path 8" d="M163.052,83.5a4.738,4.738,0,1,0,4.732,4.738A4.74,4.74,0,0,0,163.052,83.5Zm0,6.317a1.579,1.579,0,1,1,1.573-1.579A1.578,1.578,0,0,1,163.052,89.817Z" transform="translate(-124.983 -77.288)" fill="#212121"/>
    <path id="Path_9" data-name="Path 9" d="M278.913,88.238a4.74,4.74,0,0,0-4.732-4.738H230.048a4.738,4.738,0,0,0,0,9.475h44.134A4.74,4.74,0,0,0,278.913,88.238Zm-4.732,1.579H230.048a1.579,1.579,0,0,1,0-3.158h44.134a1.579,1.579,0,0,1,0,3.158Z" transform="translate(-177.872 -77.288)" fill="#212121"/>
    <path id="Path_10" data-name="Path 10" d="M289.238,227.191a1.579,1.579,0,1,0-2.583,1.817l3.953,5.619a1.579,1.579,0,0,1-2.585,1.816l-9.5-13.5a2.635,2.635,0,0,0-2.152-1.117h0a2.636,2.636,0,0,0-2.152,1.116l-9.509,13.5a1.58,1.58,0,1,1-2.585-1.817l11.249-15.97a2.638,2.638,0,0,0,0-3.03L263.861,202.1a1.58,1.58,0,1,1,2.584-1.818l7.781,11.061a2.635,2.635,0,0,0,2.152,1.118h0a2.635,2.635,0,0,0,2.152-1.116l7.793-11.064a1.58,1.58,0,0,1,2.583,1.82l-9.531,13.532a2.638,2.638,0,0,0,0,3.03l3.039,4.32A1.579,1.579,0,1,0,285,221.161l-2.825-4.016,9.318-13.229a4.738,4.738,0,0,0-7.747-5.457l-7.362,10.452-7.351-10.45a4.738,4.738,0,0,0-7.751,5.452l9.3,13.226-11.036,15.667a4.738,4.738,0,0,0,7.747,5.458l9.08-12.891,9.067,12.888a4.738,4.738,0,0,0,7.751-5.452Z" transform="translate(-204.212 -166.457)" fill="#212121"/>
    <path id="Path_11" data-name="Path 11" d="M113.935,196.441a4.743,4.743,0,0,0-4.738,4.738v23.61c0,1.612-.459,3.492-3.866,5.207a7.774,7.774,0,0,1-3.537.792,6.838,6.838,0,0,1-3.787-1.065c-2.666-1.7-3.2-3.141-3.2-4.909V213.825a1.579,1.579,0,0,0-3.158,0v10.988c0,3.22,1.393,5.484,4.659,7.571a9.922,9.922,0,0,0,5.5,1.562,10.885,10.885,0,0,0,4.944-1.129c3.771-1.9,5.6-4.525,5.6-8.028v-23.61a1.579,1.579,0,0,1,3.158,0v23.61c0,4.746-2.47,8.4-7.342,10.849a14.014,14.014,0,0,1-6.365,1.467h-.022a13.147,13.147,0,0,1-7.179-2.059c-4.173-2.666-6.117-5.918-6.117-10.233V201.179a1.579,1.579,0,1,1,3.158,0v5.277a1.579,1.579,0,0,0,3.158,0v-5.277a4.738,4.738,0,0,0-9.475,0v23.634c0,5.345,2.549,9.683,7.575,12.894a16.258,16.258,0,0,0,8.877,2.556h.024a17.141,17.141,0,0,0,7.785-1.8c7.5-3.779,9.08-9.52,9.08-13.67v-23.61a4.743,4.743,0,0,0-4.738-4.738Z" transform="translate(-67.363 -166.448)" fill="#212121"/>
    <path id="Path_12" data-name="Path 12" d="M99.913,54H7.9A7.905,7.905,0,0,0,0,61.9v69.276a7.905,7.905,0,0,0,7.9,7.9H99.913a7.905,7.905,0,0,0,7.9-7.9V61.9A7.905,7.905,0,0,0,99.913,54Zm0,81.91H7.9a4.743,4.743,0,0,1-4.738-4.738V76H92.228a1.579,1.579,0,1,0,0-3.158H3.158V61.9A4.743,4.743,0,0,1,7.9,57.158H99.913a4.743,4.743,0,0,1,4.738,4.738V72.846H99.6A1.579,1.579,0,0,0,99.6,76h5.054v55.168A4.743,4.743,0,0,1,99.913,135.91Z" transform="translate(0 -54)" fill="#212121"/>
  </g>
</svg>
